<?xml version="1.0" encoding="UTF-8" standalone="no"?>
<svg
   xmlns:dc="http://purl.org/dc/elements/1.1/"
   xmlns:cc="http://creativecommons.org/ns#"
   xmlns:rdf="http://www.w3.org/1999/02/22-rdf-syntax-ns#"
   xmlns:svg="http://www.w3.org/2000/svg"
   xmlns="http://www.w3.org/2000/svg"
   xmlns:sodipodi="http://sodipodi.sourceforge.net/DTD/sodipodi-0.dtd"
   xmlns:inkscape="http://www.inkscape.org/namespaces/inkscape"
   inkscape:export-ydpi="96"
   inkscape:export-xdpi="96"
   inkscape:export-filename="/Users/alexaquino/git/xhold-crypto-project/assets/icons/binance.png"
   inkscape:version="1.0 (4035a4f, 2020-05-01)"
   height="64"
   width="64"
   sodipodi:docname="binance.svg"
   id="svg881"
   version="1.1"
   viewBox="0 0 64 64">
  <metadata
     id="metadata885">
    <rdf:RDF>
      <cc:Work
         rdf:about="">
        <dc:format>image/svg+xml</dc:format>
        <dc:type
           rdf:resource="http://purl.org/dc/dcmitype/StillImage" />
        <dc:title>bi</dc:title>
      </cc:Work>
    </rdf:RDF>
  </metadata>
  <sodipodi:namedview
     inkscape:current-layer="svg881"
     inkscape:window-maximized="0"
     inkscape:window-y="41"
     inkscape:window-x="87"
     inkscape:cy="24.285963"
     inkscape:cx="19.096722"
     inkscape:zoom="4.7276611"
     showgrid="false"
     id="namedview883"
     inkscape:window-height="980"
     inkscape:window-width="1121"
     inkscape:pageshadow="2"
     inkscape:pageopacity="0"
     guidetolerance="10"
     gridtolerance="10"
     objecttolerance="10"
     borderopacity="1"
     bordercolor="#666666"
     pagecolor="#ffffff" />
  <defs
     id="defs871">
    <style
       id="style869">.cls-1{fill:#f3ba2f;}</style>
  </defs>
  <title
     id="title873">bi</title>
  <circle
     r="32"
     cy="32"
     cx="32"
     id="path887"
     style="fill:#f3ba2f;stroke-width:21.9454;stroke-linecap:round;stroke-linejoin:round;fill-opacity:1" />
  <g
     style="fill:#ffffff"
     transform="matrix(0.016,0,0,0.016,12,12)"
     data-name="Layer 2"
     id="Layer_2">
    <g
       style="fill:#ffffff"
       data-name="Layer 1"
       id="Layer_1-2">
      <path
         style="fill:#ffffff"
         id="path875"
         d="M 764.48,1050.52 1250,565 1735.75,1050.73 2018.25,768.23 1250,0 482,768 764.49,1050.5 M 0,1250 282.51,967.45 565,1249.94 282.49,1532.45 Z M 764.48,1449.51 1250,1935 l 485.74,-485.72 282.65,282.35 -0.14,0.15 L 1250,2500 482,1732 l -0.4,-0.4 282.91,-282.12 M 1935,1250.12 2217.51,967.61 2500,1250.1 2217.5,1532.61 Z"
         class="cls-1" />
      <path
         style="fill:#ffffff"
         id="path877"
         d="m 1536.52,1249.85 h 0.12 L 1250,963.19 1038.13,1175 v 0 l -24.34,24.35 -50.2,50.21 -0.4,0.39 0.4,0.41 286.41,286.45 286.66,-286.66 0.14,-0.16 -0.26,-0.14"
         class="cls-1" />
    </g>
  </g>
</svg>
