<?xml version="1.0" encoding="UTF-8" standalone="no"?>
<svg
   xmlns:dc="http://purl.org/dc/elements/1.1/"
   xmlns:cc="http://creativecommons.org/ns#"
   xmlns:rdf="http://www.w3.org/1999/02/22-rdf-syntax-ns#"
   xmlns:svg="http://www.w3.org/2000/svg"
   xmlns="http://www.w3.org/2000/svg"
   xmlns:sodipodi="http://sodipodi.sourceforge.net/DTD/sodipodi-0.dtd"
   xmlns:inkscape="http://www.inkscape.org/namespaces/inkscape"
   inkscape:export-ydpi="96"
   inkscape:export-xdpi="96"
   inkscape:export-filename="/Users/alexaquino/git/xhold-crypto-project/assets/icons/bitcoin-cash.png"
   inkscape:version="1.0 (4035a4f, 2020-05-01)"
   height="64"
   width="64"
   sodipodi:docname="bitcoin-cash.svg"
   xml:space="preserve"
   viewBox="0 0 64 64"
   y="0px"
   x="0px"
   id="Layer_1"
   version="1.1"><metadata
   id="metadata879"><rdf:RDF><cc:Work
       rdf:about=""><dc:format>image/svg+xml</dc:format><dc:type
         rdf:resource="http://purl.org/dc/dcmitype/StillImage" /><dc:title></dc:title></cc:Work></rdf:RDF></metadata><defs
   id="defs877">
	
	
</defs><sodipodi:namedview
   inkscape:current-layer="Layer_1"
   inkscape:window-maximized="0"
   inkscape:window-y="23"
   inkscape:window-x="0"
   inkscape:cy="16"
   inkscape:cx="16"
   inkscape:zoom="3.9332815"
   showgrid="false"
   id="namedview875"
   inkscape:window-height="989"
   inkscape:window-width="1325"
   inkscape:pageshadow="2"
   inkscape:pageopacity="0"
   guidetolerance="10"
   gridtolerance="10"
   objecttolerance="10"
   borderopacity="1"
   bordercolor="#666666"
   pagecolor="#ffffff" />
<style
   id="style866"
   type="text/css">
	.st0{fill-rule:evenodd;clip-rule:evenodd;fill:#8DC351;}
	.st1{fill:#FFFFFF;}
</style>
<g
   id="g886"><circle
     id="circle868"
     r="32"
     cy="32"
     cx="32"
     class="st0"
     style="stroke-width:2" /></g><path
   style="stroke-width:2"
   class="st1"
   d="M 42.4,21 C 40.8,17 37,16.8 32.4,17.6 L 30.8,12 27.4,13 29,18.4 c -0.8,0.2 -1.8,0.6 -2.8,0.8 l -1.6,-5.6 -3.4,1 1.6,5.6 c -0.8,0.2 -1.4,0.4 -2.2,0.6 v 0 L 16,22.4 17,26 c 0,0 2.6,-0.8 2.4,-0.8 1.4,-0.4 2,0.2 2.4,1 l 1.8,6.4 c 0,0 0.2,0 0.4,0 l -0.4,0.2 2.6,9 c 0,0.4 0,1.2 -1,1.6 0,0 -2.4,0.8 -2.4,0.8 l 0.4,4.2 4.4,-1.2 C 28.4,47 29.2,46.8 30,46.6 l 1.6,5.6 3.4,-1 -1.6,-5.6 c 1,-0.2 1.8,-0.4 2.8,-0.8 l 1.6,5.6 3.4,-1 -1.6,-5.6 c 5.6,-2 9.2,-4.6 8.2,-10.2 -0.8,-4.4 -3.4,-5.8 -7,-5.6 2,-2 2.8,-4 1.6,-7 z m -1.2,13.6 c 1.2,4.2 -6.2,5.8 -8.6,6.6 l -2.2,-7.6 c 2.4,-0.6 9.4,-3.4 10.8,1 z M 36.4,24.4 c 1.2,3.8 -5,5.2 -7,5.8 l -2,-6.8 c 2,-0.6 8,-3 9,1 z"
   id="path870" />
</svg>
