<?xml version="1.0" encoding="UTF-8" standalone="no"?>
<svg
   xmlns:dc="http://purl.org/dc/elements/1.1/"
   xmlns:cc="http://creativecommons.org/ns#"
   xmlns:rdf="http://www.w3.org/1999/02/22-rdf-syntax-ns#"
   xmlns:svg="http://www.w3.org/2000/svg"
   xmlns="http://www.w3.org/2000/svg"
   xmlns:sodipodi="http://sodipodi.sourceforge.net/DTD/sodipodi-0.dtd"
   xmlns:inkscape="http://www.inkscape.org/namespaces/inkscape"
   inkscape:export-ydpi="96"
   inkscape:export-xdpi="96"
   inkscape:export-filename="/Users/alexaquino/git/xhold-crypto-project/assets/icons/cardano.png"
   inkscape:version="1.0 (4035a4f, 2020-05-01)"
   height="64"
   width="64"
   sodipodi:docname="cardano.svg"
   version="1.1"
   viewBox="0 0 64 64"
   data-name="Layer 1"
   id="Layer_1">
  <metadata
     id="metadata883">
    <rdf:RDF>
      <cc:Work
         rdf:about="">
        <dc:format>image/svg+xml</dc:format>
        <dc:type
           rdf:resource="http://purl.org/dc/dcmitype/StillImage" />
        <dc:title>cardano-ada-logo</dc:title>
      </cc:Work>
    </rdf:RDF>
  </metadata>
  <defs
     id="defs881" />
  <sodipodi:namedview
     inkscape:current-layer="Layer_1"
     inkscape:window-maximized="0"
     inkscape:window-y="23"
     inkscape:window-x="0"
     inkscape:cy="25.063652"
     inkscape:cx="-9.8937839"
     inkscape:zoom="6.9678263"
     showgrid="false"
     id="namedview879"
     inkscape:window-height="971"
     inkscape:window-width="1538"
     inkscape:pageshadow="2"
     inkscape:pageopacity="0"
     guidetolerance="10"
     gridtolerance="10"
     objecttolerance="10"
     borderopacity="1"
     bordercolor="#666666"
     pagecolor="#ffffff" />
  <title
     id="title874">cardano-ada-logo</title>
  <circle
     r="32"
     cy="32"
     cx="32"
     id="path1446"
     style="fill:#113284;stroke-width:32.7801;stroke-linecap:round;stroke-linejoin:round;fill-opacity:1" />
  <path
     id="path876"
     style="fill:#ffffff;stroke-width:0.0160001"
     d="m 31.509277,13.628968 c 0.871842,-0.454561 1.936005,0.600002 1.472004,1.471044 -0.26896,0.709922 -1.288964,0.898723 -1.809925,0.357601 -0.551361,-0.519521 -0.371361,-1.546084 0.337921,-1.828645 m -9.377146,1.010563 c 0.529601,-0.218081 1.200004,0.267201 1.145923,0.844482 0.05616,0.626562 -0.709922,1.088003 -1.249763,0.790082 -0.715202,-0.27696 -0.633442,-1.438083 0.10384,-1.634404 m 19.205333,1.652005 c -0.827682,-0.100001 -0.958563,-1.401124 -0.16176,-1.664005 0.618082,-0.301441 1.184963,0.263841 1.275363,0.849602 -0.1296,0.500162 -0.548481,0.958243 -1.113603,0.813603 m -17.072047,2.339046 c 0.885443,-0.560002 2.148806,0.273921 2.012645,1.302403 -0.04592,1.038403 -1.425283,1.640005 -2.203366,0.937923 -0.752001,-0.551361 -0.638401,-1.816485 0.190721,-2.240006 m 13.516197,0.594241 c 0.395362,-1.016962 1.996006,-1.048962 2.445607,-0.05696 0.444321,0.771202 -0.10224,1.726245 -0.893922,1.988326 -1.048803,0.19584 -2.044966,-0.937923 -1.551205,-1.930565 m -7.4021,1.872485 c -0.0086,-0.875042 0.788322,-1.527044 1.620004,-1.586564 0.551522,0.11056 1.152804,0.3456 1.389444,0.902242 0.440962,0.768002 0.04944,1.824965 -0.747361,2.177446 -0.364322,0.204161 -0.795203,0.128001 -1.192004,0.103841 -0.606562,-0.297762 -1.117443,-0.881763 -1.069923,-1.596805 m -13.945158,1.274725 c 0.808802,-0.497281 1.900005,0.410241 1.593764,1.288804 -0.168641,0.760002 -1.190243,1.069122 -1.774245,0.584001 -0.624002,-0.454561 -0.524641,-1.547684 0.180481,-1.872805 m 29.945042,-0.0016 c 0.686242,-0.532801 1.818565,0.0784 1.736805,0.944002 0.04608,0.790083 -0.932963,1.385765 -1.614245,0.979044 -0.750242,-0.337122 -0.826722,-1.491365 -0.12256,-1.923846 m -12.078433,1.572964 c 1.132323,-0.406721 2.477446,0.08 3.122889,1.089603 0.851362,1.234244 0.3984,3.113768 -0.922883,3.821931 -1.368964,0.837602 -3.368009,0.128001 -3.873611,-1.401124 -0.574082,-1.368644 0.262241,-3.081448 1.673605,-3.51041 m -6.644018,0.135529 c 1.255043,-0.592002 2.944008,-0.096 3.550249,1.188323 0.713442,1.249604 0.16176,2.989608 -1.113603,3.63473 -1.276963,0.725282 -3.078569,0.176001 -3.69601,-1.166243 -0.693602,-1.297284 -0.07824,-3.059368 1.259364,-3.65681 m -6.652659,2.274406 c 0.096,-0.808642 0.858243,-1.334724 1.627844,-1.389284 0.829283,0.1 1.491685,0.744002 1.581765,1.584005 -0.0544,0.830722 -0.696482,1.642884 -1.576804,1.637764 -0.968643,0.08333 -1.817766,-0.880027 -1.632805,-1.83187 m 19.649654,-1.213444 c 0.994404,-0.578881 2.375207,0.263842 2.331047,1.406244 0.06816,1.210404 -1.460004,2.064006 -2.450247,1.353444 -1.028643,-0.591201 -0.948483,-2.256006 0.1192,-2.759528 m -15.700843,4.265292 c 1.163043,-0.32 2.492807,0.228161 3.063208,1.297124 0.624002,1.076003 0.369442,2.570728 -0.600961,3.360009 -1.244644,1.157604 -3.54001,0.692802 -4.202412,-0.887043 -0.761122,-1.448163 0.16336,-3.388968 1.740165,-3.77025 m 12.601795,-0.0059 c 1.130563,-0.323361 2.458726,0.112 3.066568,1.142403 0.803682,1.178084 0.420001,2.935048 -0.776321,3.694411 -1.253284,0.881761 -3.19441,0.418721 -3.884012,-0.960003 -0.836002,-1.426244 0.0053,-3.44177 1.593765,-3.876811 m -20.082136,1.344001 c 1.004643,-0.380001 2.118246,0.728642 1.711205,1.724644 -0.248481,0.907203 -1.527204,1.243204 -2.187846,0.573762 -0.772962,-0.628161 -0.486721,-2.025925 0.476801,-2.298406 m 27.230476,1.445444 c -0.02896,-0.832002 0.580002,-1.569604 1.433603,-1.616005 0.688002,0.108961 1.356964,0.664002 1.302564,1.412965 0.06304,0.989282 -1.128964,1.661603 -1.971845,1.196803 -0.395042,-0.200801 -0.597602,-0.605922 -0.764322,-0.994243 M 12.534025,31.231576 c 0.604321,-0.26384 1.352003,0.260001 1.214083,0.931203 -0.032,0.760002 -1.154403,1.052163 -1.566564,0.417121 -0.364321,-0.440161 -0.146401,-1.120163 0.352481,-1.348324 z m 38.108745,-0.016 c 0.425601,-0.303041 1.108483,-0.08528 1.276964,0.412001 0.28608,0.543042 -0.238402,1.287044 -0.849603,1.195204 -0.858082,0.07824 -1.136004,-1.229444 -0.427361,-1.607205 m -22.405982,3.64801 c 1.590404,-0.413601 3.300009,0.912003 3.310089,2.550247 0.10384,1.654725 -1.580004,3.122249 -3.208008,2.740008 -1.258404,-0.202561 -2.245767,-1.414724 -2.204967,-2.686407 -0.0034,-1.216003 0.914403,-2.346567 2.103046,-2.603848 m 6.298417,-0.0034 c 1.614245,-0.4512 3.374729,0.898723 3.349129,2.574248 0.08528,1.624165 -1.546084,3.042248 -3.140008,2.720007 -1.500004,-0.19392 -2.606727,-1.841925 -2.188006,-3.297609 0.211361,-0.969923 1.021762,-1.758725 1.978885,-1.996646 m -12.144033,1.008018 c 1.116963,-0.19056 2.164166,1.056003 1.711204,2.116166 -0.3304,1.130243 -1.975205,1.436804 -2.702407,0.513601 -0.852962,-0.886562 -0.216161,-2.507367 0.991203,-2.629767 m 18.470931,0.05136 c 0.996003,-0.417122 2.218566,0.444321 2.141926,1.525443 0.04,1.190084 -1.469444,2.010567 -2.443367,1.316004 -1.104003,-0.624001 -0.902402,-2.458726 0.301441,-2.841447 m 5.162894,5.178414 c -0.389921,-0.727042 0.318401,-1.690565 1.125603,-1.556004 0.401761,-0.0067 0.682882,0.30976 0.940003,0.576001 0.0528,0.430882 0.14144,0.944003 -0.216161,1.276804 -0.485601,0.614561 -1.585605,0.439201 -1.849445,-0.296162 M 16.431955,39.744559 c 0.754403,-0.502241 1.840006,0.246722 1.670405,1.128803 -0.09024,0.780003 -1.072003,1.225764 -1.720005,0.784003 -0.694562,-0.401761 -0.668961,-1.545764 0.0496,-1.912006 m 14.904042,1.632805 c 0.987682,-0.435841 2.245765,0.424002 2.152165,1.511845 0.07328,1.201923 -1.483043,2.034405 -2.448006,1.312003 -1.072003,-0.619842 -0.893763,-2.443206 0.296481,-2.824328 m -6.90466,1.610085 c 0.841123,-0.442562 1.970086,0.32176 1.893446,1.264003 0.0256,0.772962 -0.728802,1.431844 -1.491684,1.317604 -0.631842,-0.0136 -1.043843,-0.580002 -1.246404,-1.118564 0.0104,-0.587041 0.252001,-1.240803 0.844642,-1.462243 m 13.982919,0.0136 c 0.864962,-0.534562 2.094406,0.233281 2.012646,1.240003 0.02224,1.052164 -1.367205,1.726245 -2.172646,1.035044 -0.779842,-0.541762 -0.684642,-1.844166 0.16,-2.275047 m 2.432007,6.011377 c -0.384001,-0.582242 0.06816,-1.283684 0.692962,-1.416324 0.502401,0.10224 1.033602,0.480001 0.928002,1.062403 -0.07328,0.788162 -1.226083,1.030082 -1.620964,0.353921 M 21.54461,48.507944 c 0.15328,-0.461442 0.524481,-0.920003 1.067682,-0.800002 0.791843,0.05616 1.026884,1.249603 0.333761,1.617444 -0.623201,0.420161 -1.346243,-0.1552 -1.401443,-0.817442 m 9.312025,0.529442 c 0.151681,-0.682563 1.035203,-1.014564 1.617605,-0.652002 0.384001,0.16528 0.497121,0.595842 0.596002,0.961762 -0.0528,0.190561 -0.100001,0.381441 -0.146401,0.572002 -0.238401,0.282561 -0.544002,0.565281 -0.941602,0.555041 -0.737442,0.0864 -1.402564,-0.747202 -1.125604,-1.436803" />
</svg>
