<?xml version="1.0" encoding="UTF-8" standalone="no"?>
<svg
   xmlns:dc="http://purl.org/dc/elements/1.1/"
   xmlns:cc="http://creativecommons.org/ns#"
   xmlns:rdf="http://www.w3.org/1999/02/22-rdf-syntax-ns#"
   xmlns:svg="http://www.w3.org/2000/svg"
   xmlns="http://www.w3.org/2000/svg"
   xmlns:sodipodi="http://sodipodi.sourceforge.net/DTD/sodipodi-0.dtd"
   xmlns:inkscape="http://www.inkscape.org/namespaces/inkscape"
   version="1.1"
   id="Layer_1"
   x="0px"
   y="0px"
   viewBox="0 0 63.999998 64"
   xml:space="preserve"
   sodipodi:docname="polkadot.svg"
   width="64"
   height="64"
   inkscape:version="1.0 (4035a4f, 2020-05-01)"
   inkscape:export-filename="/Users/alexaquino/git/xhold-crypto-project/assets/icons/polkadot.png"
   inkscape:export-xdpi="96"
   inkscape:export-ydpi="96"><metadata
   id="metadata56"><rdf:RDF><cc:Work
       rdf:about=""><dc:format>image/svg+xml</dc:format><dc:type
         rdf:resource="http://purl.org/dc/dcmitype/StillImage" /><dc:title>polkadot</dc:title></cc:Work></rdf:RDF></metadata><defs
   id="defs54" /><sodipodi:namedview
   inkscape:document-rotation="0"
   pagecolor="#ffffff"
   bordercolor="#666666"
   borderopacity="1"
   objecttolerance="10"
   gridtolerance="10"
   guidetolerance="10"
   inkscape:pageopacity="0"
   inkscape:pageshadow="2"
   inkscape:window-width="1192"
   inkscape:window-height="1004"
   id="namedview52"
   showgrid="false"
   inkscape:zoom="5.6022147"
   inkscape:cx="7.9602503"
   inkscape:cy="10.475619"
   inkscape:window-x="19"
   inkscape:window-y="54"
   inkscape:window-maximized="0"
   inkscape:current-layer="Layer_1" />
<style
   type="text/css"
   id="style43">
	.st0{fill:#1E1E1E;}
	.st1{fill:#E6007A;}
</style>
<title
   id="title45">polkadot</title>

<circle
   style="fill:#e6007a;stroke-width:11.8124;stroke-linecap:round;stroke-linejoin:round;fill-opacity:1"
   id="path68"
   cx="32"
   cy="32"
   r="32" /><g
   id="g956"><path
     id="path47"
     d="m 32.200891,12.000004 c -8.354883,0.03356 -15.119653,6.79833 -15.153213,15.153213 0,1.673213 0.270079,3.335241 0.799052,4.922157 0.394731,1.080318 1.56614,1.662027 2.665635,1.328023 1.062739,-0.407516 1.626869,-1.569337 1.288071,-2.656047 -0.449067,-1.236931 -0.648829,-2.548974 -0.5897,-3.862615 0.182184,-6.034437 5.221003,-10.779204 11.25544,-10.597021 6.034437,0.182184 10.779204,5.221003 10.597021,11.25544 -0.170997,5.649294 -4.620116,10.237448 -10.263018,10.58104 0,0 -2.127075,0.129446 -3.185019,0.258892 -0.389937,0.05593 -0.776678,0.132643 -1.158625,0.230127 -0.05433,0.05593 -0.142231,0.05593 -0.198164,0.0016 0,0 -0.0016,-0.0016 -0.0016,-0.0016 -0.03835,-0.04954 -0.03835,-0.119857 0,-0.169399 l 0.32921,-1.796267 1.997628,-8.984535 c 0.239716,-1.121869 -0.474636,-2.226158 -1.596504,-2.465873 -1.121869,-0.239716 -2.226158,0.474636 -2.465873,1.596504 0,0 -4.751161,21.991496 -4.751161,22.191259 -0.271677,1.069131 0.373956,2.155841 1.443087,2.427518 0.01119,0.0032 0.02397,0.0064 0.03516,0.008 h 0.110269 c 1.067533,0.276472 2.157439,-0.365966 2.432313,-1.433499 0.0048,-0.01758 0.0096,-0.03516 0.01278,-0.05433 -0.0032,-0.03356 -0.0032,-0.06712 0,-0.09908 0.05913,-0.258892 0.658419,-3.185019 0.658419,-3.185019 0.453861,-2.208578 2.234148,-3.900969 4.461903,-4.242963 0.458656,-0.07032 2.385968,-0.199763 2.385968,-0.199763 8.322921,-0.829416 14.39731,-8.249408 13.566296,-16.572328 -0.7575,-7.59099 -7.046036,-13.435252 -14.675379,-13.633417 z"
     class="st0"
     style="fill:#f9f9f9;stroke-width:0.015981" /><path
     id="path49"
     d="m 33.1198,46.93933 c -1.366378,-0.284462 -2.702392,0.592896 -2.986855,1.957676 -0.0032,0.01279 -0.0048,0.02557 -0.008,0.03836 -0.295649,1.356789 0.56413,2.697597 1.922518,2.993246 0.0016,0 0.0032,0 0.0048,0.0016 h 0.07032 c 1.329621,0.321218 2.667234,-0.49701 2.986854,-1.825034 0.0032,-0.0096 0.0048,-0.02078 0.008,-0.03036 V 49.935773 C 35.35235,48.564601 34.476589,47.249362 33.1198,46.93933 Z"
     class="st1"
     style="fill:#f9f9f9;stroke-width:0.015981" /></g>
</svg>
