<?xml version="1.0" encoding="UTF-8" standalone="no"?>
<svg
   xmlns:dc="http://purl.org/dc/elements/1.1/"
   xmlns:cc="http://creativecommons.org/ns#"
   xmlns:rdf="http://www.w3.org/1999/02/22-rdf-syntax-ns#"
   xmlns:svg="http://www.w3.org/2000/svg"
   xmlns="http://www.w3.org/2000/svg"
   xmlns:sodipodi="http://sodipodi.sourceforge.net/DTD/sodipodi-0.dtd"
   xmlns:inkscape="http://www.inkscape.org/namespaces/inkscape"
   inkscape:export-ydpi="96"
   inkscape:export-xdpi="96"
   inkscape:export-filename="/Users/alexaquino/git/xhold-crypto-project/assets/icons/tether.png"
   inkscape:version="1.0 (4035a4f, 2020-05-01)"
   height="64"
   width="64"
   sodipodi:docname="tether.svg"
   version="1.1"
   viewBox="0 0 64.000001 64.000002"
   data-name="Layer 1"
   id="Layer_1">
  <metadata
     id="metadata2363">
    <rdf:RDF>
      <cc:Work
         rdf:about="">
        <dc:format>image/svg+xml</dc:format>
        <dc:type
           rdf:resource="http://purl.org/dc/dcmitype/StillImage" />
        <dc:title>tether-usdt-logo</dc:title>
      </cc:Work>
    </rdf:RDF>
  </metadata>
  <defs
     id="defs2361" />
  <sodipodi:namedview
     inkscape:current-layer="Layer_1"
     inkscape:window-maximized="0"
     inkscape:window-y="23"
     inkscape:window-x="0"
     inkscape:cy="49.995353"
     inkscape:cx="46.704059"
     inkscape:zoom="4.0654525"
     showgrid="false"
     id="namedview2359"
     inkscape:window-height="953"
     inkscape:window-width="1123"
     inkscape:pageshadow="2"
     inkscape:pageopacity="0"
     guidetolerance="10"
     gridtolerance="10"
     objecttolerance="10"
     borderopacity="1"
     bordercolor="#666666"
     pagecolor="#ffffff" />
  <title
     id="title2352">tether-usdt-logo</title>
  <circle
     r="32"
     cy="32"
     cx="32"
     id="path2365"
     style="fill:#50af95;fill-opacity:1;stroke-width:3.67564;stroke-linecap:round;stroke-linejoin:round" />
  <path
     id="path2356"
     style="fill:#ffffff;fill-rule:evenodd;stroke-width:0.189403"
     d="m 36.069321,33.383588 v 0 c -0.227283,0.01705 -1.401581,0.08713 -4.021023,0.08713 -2.083432,0 -3.562669,-0.0625 -4.081633,-0.08713 v 0 c -8.051518,-0.354183 -14.061272,-1.755765 -14.061272,-3.433875 0,-1.678109 6.009754,-3.077797 14.061272,-3.437662 v 5.475638 c 0.52654,0.03788 2.034187,0.1269 4.117619,0.1269 2.500119,0 3.752072,-0.104172 3.977461,-0.125006 v -5.473744 c 8.034472,0.357971 14.030965,1.759553 14.030965,3.433874 0,1.674322 -5.994599,3.075904 -14.030965,3.431981 v 0 z m 0,-7.434064 V 21.049671 H 47.281974 V 13.577726 H 16.754013 v 7.471945 H 27.964771 V 25.94763 C 18.852597,26.36621 12,28.17122 12,30.334201 c 0,2.162981 6.852597,3.966097 15.964771,4.386572 v 15.701501 h 8.102656 V 34.71509 C 45.158767,34.29651 52,32.493394 52,30.332307 52,28.17122 45.164449,26.368104 36.067427,25.94763 v 0 z m 0,0 z" />
</svg>
